<svg xmlns="http://www.w3.org/2000/svg" viewBox="0 0 64 64" fill="none">
  <defs>
    <linearGradient id="g" x1="10" y1="8" x2="54" y2="56" gradientUnits="userSpaceOnUse">
      <stop stop-color="#7eb0ff"/>
      <stop offset="0.5" stop-color="#4f8ef7"/>
      <stop offset="1" stop-color="#3b7aef"/>
    </linearGradient>
  </defs>
  <rect width="64" height="64" rx="16" fill="url(#g)"/>
  <path d="M18 34.5v-2.2c0-7.7 6.3-14 14-14s14 6.3 14 14v2.2" stroke="#fff" stroke-width="3.2" stroke-linecap="round"/>
  <path d="M46 34.8v6.2a3.2 3.2 0 0 1-3.2 3.2h-1.6a2.6 2.6 0 0 1-2.6-2.6v-3.8a2.6 2.6 0 0 1 2.6-2.6H48" stroke="#fff" stroke-width="3.2" stroke-linecap="round" stroke-linejoin="round"/>
  <path d="M18 34.8v6.2a3.2 3.2 0 0 0 3.2 3.2h1.6a2.6 2.6 0 0 0 2.6-2.6v-3.8a2.6 2.6 0 0 0-2.6-2.6H16" stroke="#fff" stroke-width="3.2" stroke-linecap="round" stroke-linejoin="round"/>
  <circle cx="32" cy="44.5" r="2.2" fill="#fff" opacity="0.9"/>
</svg>
